<svg xmlns="http://www.w3.org/2000/svg" viewBox="0 0 48 32" width="48" height="32">
  <rect width="48" height="32" rx="4" fill="#003087"/>
  <g transform="translate(8, 6)">
    <path d="M12.5 3.5c.8 0 1.4.2 1.9.6.5.4.7 1 .7 1.8 0 1.3-.6 2.3-1.6 2.9-.5.3-1.1.4-1.8.4h-.9l-.6 3.3h-1.8l1.8-9h3.3zm-.8 4.2c.4 0 .7-.1.9-.3.3-.2.4-.5.4-.9 0-.3-.1-.5-.3-.6-.2-.1-.4-.2-.7-.2h-1l-.5 2h1.2z" fill="#009CDE"/>
    <path d="M20.5 3.5c.8 0 1.4.2 1.9.6.5.4.7 1 .7 1.8 0 1.3-.6 2.3-1.6 2.9-.5.3-1.1.4-1.8.4h-.9l-.6 3.3h-1.8l1.8-9h3.3zm-.8 4.2c.4 0 .7-.1.9-.3.3-.2.4-.5.4-.9 0-.3-.1-.5-.3-.6-.2-.1-.4-.2-.7-.2h-1l-.5 2h1.2z" fill="#012169"/>
  </g>
</svg>
