<svg xmlns="http://www.w3.org/2000/svg" viewBox="0 0 48 32" width="48" height="32">
  <rect width="48" height="32" rx="4" fill="#1A1F71"/>
  <path d="M19.5 11.5l-2.8 9h-2.2l-1.4-5.4c-.1-.3-.2-.4-.4-.5-.4-.2-1-.4-1.6-.5l0-.1h2.8c.4 0 .7.3.8.6l.7 3.8 1.8-4.4h2.3zm9.1 6.1c0-2.4-3.3-2.5-3.3-3.6 0-.3.3-.7 1-.8.3 0 1.2-.1 2.2.4l.4-1.8c-.5-.2-1.3-.4-2.2-.4-2.3 0-3.9 1.2-3.9 3 0 1.3 1.2 2 2.1 2.4.9.4 1.2.7 1.2 1.1 0 .6-.7.9-1.4.9-1.2 0-1.8-.2-2.8-.6l-.5 2.1c.6.3 1.8.5 3 .5 2.5 0 4.1-1.2 4.1-3.1zm6.2 2.9h2l-1.7-9h-1.9c-.4 0-.7.2-.9.6l-3.1 8.4h2.3l.5-1.3h2.9l.3 1.3zm-2.5-3.1l1.2-3.3.7 3.3h-1.9zm-8.8-5.9l-1.8 9h-2.2l1.8-9h2.2z" fill="white"/>
</svg>
